<?xml version="1.0" encoding="UTF-8"?>
<svg version="1.1" xmlns="http://www.w3.org/2000/svg" width="677" height="509">
<path d="M0 0 C223.41 0 446.82 0 677 0 C677 167.97 677 335.94 677 509 C453.59 509 230.18 509 0 509 C0 341.03 0 173.06 0 0 Z " fill="#030703" transform="translate(0,0)"/>
<path d="M0 0 C28.82410605 -0.23354504 57.64807043 -0.40991615 86.47293186 -0.51812172 C89.13665898 -0.52838673 91.80038549 -0.53873345 94.46411133 -0.54931641 C95.12619163 -0.55193951 95.78827194 -0.55456261 96.47041529 -0.55726521 C106.52162964 -0.59806292 116.57237072 -0.6682707 126.62329102 -0.75439453 C138.28755279 -0.85402971 149.95138901 -0.91857334 161.61606449 -0.94088495 C167.79337707 -0.95392869 173.96947218 -0.98460545 180.14639473 -1.05730057 C185.96042521 -1.12517062 191.77273678 -1.14611792 197.58712578 -1.13107681 C199.72091896 -1.13382836 201.85476949 -1.15372796 203.98822021 -1.19205475 C220.13533536 -1.46790789 220.13533536 -1.46790789 224.78323078 2.19102478 C226.60584696 4.74656615 227.83481233 7.09658002 229 10 C229.67361572 11.04704102 230.34723145 12.09408203 231.04125977 13.17285156 C231.85808228 14.51814941 231.85808228 14.51814941 232.69140625 15.890625 C233.31877686 16.91841064 233.94614746 17.94619629 234.5925293 19.00512695 C235.24261963 20.07593506 235.89270996 21.14674316 236.5625 22.25 C237.97406836 24.56272812 239.38881304 26.87349975 240.8046875 29.18359375 C241.15804672 29.76034348 241.51140594 30.3370932 241.87547302 30.93132019 C245.25178221 36.43099899 248.70888422 41.87716284 252.1875 47.3125 C259.44968909 58.66786705 266.53481018 70.12862979 273.60449219 81.60449219 C280.36963326 92.58088217 287.19492796 103.51343719 294.15600586 114.36694336 C297.87798731 120.18277994 301.47907915 126.0602836 305 132 C308.52577923 128.60451428 311.04332605 124.98398098 313.5625 120.8125 C314.45447958 119.35990902 315.34775034 117.90811026 316.2421875 116.45703125 C316.69948242 115.71404785 317.15677734 114.97106445 317.62792969 114.20556641 C319.76453096 110.77103688 321.97598269 107.38657753 324.1875 104 C329.38163148 96.02379991 334.41706053 87.95194978 339.44750977 79.87182617 C343.11956696 73.98243111 346.8325029 68.12499787 350.625 62.3125 C355.22372471 55.26026813 359.66704712 48.11846935 364.08544922 40.95214844 C367.77587781 34.96903151 371.49532928 29.0055205 375.25 23.0625 C375.69657959 22.35496582 376.14315918 21.64743164 376.60327148 20.91845703 C377.50079733 19.50001232 378.42268723 18.0966857 379.3684845 16.70996094 C381.12936045 13.95748772 381.12936045 13.95748772 382.35992432 10.51950073 C384.1765254 6.2803764 386.18475478 2.71896291 390 0 C398.16126325 -2.64152275 407.33063796 -1.64685442 415.78125 -1.40234375 C418.32185093 -1.37875177 420.86251482 -1.36122656 423.40319824 -1.34950256 C429.39254067 -1.30670687 435.3775656 -1.20095607 441.36524534 -1.06480843 C448.18240667 -0.91374581 454.99958538 -0.84950299 461.81805515 -0.78975666 C472.40105431 -0.69355327 482.98324925 -0.55389404 493.56445312 -0.33569336 C494.61270264 -0.31729401 495.66095215 -0.29889465 496.7409668 -0.27993774 C497.68854858 -0.25833084 498.63613037 -0.23672394 499.61242676 -0.21446228 C500.4404908 -0.19720061 501.26855484 -0.17993895 502.12171173 -0.1621542 C504 0 504 0 505 1 C505.3764537 5.52664568 504.81424579 8.03059056 502.32421875 11.80078125 C501.74905518 12.68677002 501.1738916 13.57275879 500.58129883 14.4855957 C499.64386841 15.88491333 499.64386841 15.88491333 498.6875 17.3125 C498.05030029 18.28727295 497.41310059 19.2620459 496.7565918 20.26635742 C495.45877136 22.25018025 494.15548645 24.23043929 492.84667969 26.20703125 C490.75352664 29.37277303 488.69390157 32.5588798 486.64013672 35.75024414 C483.99092866 39.86533434 481.32108148 43.9670876 478.65429688 48.07080078 C472.82431175 57.04436422 467.05434342 66.05223994 461.35107422 75.10693359 C457.60109335 81.05817649 453.81048595 86.98191713 450 92.89453125 C446.060879 99.01093984 442.16233347 105.15275969 438.28515625 111.30859375 C433.04374556 119.62803425 427.77404081 127.9260416 422.42016602 136.17358398 C413.11337195 150.52012269 403.93447083 164.94995553 394.75 179.375 C393.90103149 180.70809204 393.90103149 180.70809204 393.03491211 182.06811523 C390.18700045 186.54493205 387.35066042 191.02860995 384.53125 195.5234375 C383.70222168 196.84335693 383.70222168 196.84335693 382.85644531 198.18994141 C381.8117467 199.8547909 380.76930389 201.52105878 379.72949219 203.18896484 C379.26704102 203.9258252 378.80458984 204.66268555 378.328125 205.421875 C377.9249707 206.06737305 377.52181641 206.71287109 377.10644531 207.37792969 C376 209 376 209 374 211 C372.68 211 371.36 211 370 211 C365.38 199.12 360.76 187.24 356 175 C353.81543204 177.18456796 354.81110383 182.36271595 354.796875 185.40234375 C354.78995132 186.37491623 354.78302765 187.34748871 354.77589417 188.34953308 C354.75841276 191.54556195 354.75228465 194.74142531 354.75 197.9375 C354.74866058 199.02133972 354.74732117 200.10517944 354.74594116 201.22186279 C354.74970106 215.23800153 355.03915033 229.16299269 356.3125 243.125 C356.40078064 244.1276741 356.40078064 244.1276741 356.49084473 245.15060425 C357.32040427 254.29125301 358.90150705 263.07217844 361 272 C363.92955485 257.04057099 366.55614145 242.04623202 369 227 C369.66 227 370.32 227 371 227 C372.85975669 229.40077682 374.59770677 231.81034637 376.3125 234.3125 C376.8394043 235.06998535 377.36630859 235.8274707 377.90917969 236.60791016 C382.45177143 243.15411411 386.93385722 249.74254501 391.42089844 256.3269043 C394.8417307 261.33818672 398.33742975 266.28048908 401.93359375 271.16796875 C406.71069896 277.71504111 411.34143187 284.36834299 416 291 C416.57089355 291.81243164 417.14178711 292.62486328 417.72998047 293.46191406 C423.73392511 302.010522 429.72131214 310.56927542 435.625 319.1875 C440.83827947 326.79663714 446.15167773 334.33277625 451.48388672 341.85888672 C454.49171178 346.10665254 457.49089985 350.3605225 460.4909668 354.61376953 C463.03611187 358.22116005 465.58495705 361.82583634 468.140625 365.42578125 C472.52620204 371.60984911 476.89776399 377.7888334 481.0625 384.125 C484.45223273 389.26562773 488.06170974 394.21108304 491.72509766 399.15722656 C495.05485949 403.66925374 498.27563474 408.24396799 501.4375 412.875 C509.28875274 424.37152716 517.33582869 435.72375564 525.5 447 C529.90437415 453.08352522 534.28480958 459.18297953 538.625 465.3125 C539.12193359 466.01181641 539.61886719 466.71113281 540.13085938 467.43164062 C547.08074494 477.2732955 547.08074494 477.2732955 546.75 480.25 C546 482 546 482 545 483 C543.27804782 483.10933836 541.55161057 483.14854126 539.82623291 483.16062927 C538.7045874 483.1706749 537.58294189 483.18072052 536.42730713 483.19107056 C535.18575867 483.19690155 533.94421021 483.20273254 532.66503906 483.20874023 C531.36594604 483.21852402 530.06685303 483.2283078 528.72839355 483.23838806 C524.40750125 483.26982954 520.08658937 483.29004813 515.765625 483.30859375 C514.66374611 483.31353973 514.66374611 483.31353973 513.53960705 483.31858563 C506.61396838 483.34937227 499.68832547 483.3760861 492.76263809 483.39300442 C483.8975516 483.41491211 475.03307079 483.45687413 466.16822648 483.52644199 C459.93888369 483.57367006 453.70970436 483.59793644 447.48018813 483.6052013 C443.75794616 483.61016023 440.03638606 483.62526116 436.31433868 483.6649456 C432.16003238 483.70865304 428.00706773 483.70491782 423.85253906 483.69702148 C422.61908752 483.71702209 421.38563599 483.73702271 420.11480713 483.75762939 C411.97163471 483.68795755 411.97163471 483.68795755 409.15662289 481.69481277 C407.79862976 480.09391785 407.79862976 480.09391785 406 477 C405.46189697 476.27409668 404.92379395 475.54819336 404.36938477 474.80029297 C403.89815186 474.12111816 403.42691895 473.44194336 402.94140625 472.7421875 C402.39782471 471.96198242 401.85424316 471.18177734 401.29418945 470.37792969 C400.72273193 469.55196289 400.15127441 468.72599609 399.5625 467.875 C398.31780768 466.08586838 397.07301308 464.29680791 395.828125 462.5078125 C395.19455078 461.59547852 394.56097656 460.68314453 393.90820312 459.74316406 C391.47421751 456.24415403 389.02629814 452.75503242 386.57788086 449.26611328 C381.40395534 441.89196359 376.26416815 434.49619838 371.17407227 427.06396484 C367.56940524 421.80833025 363.9132466 416.58991861 360.25 411.375 C349.96569369 396.72135791 339.88407974 381.92652222 330 367 C328.7922847 365.18708813 327.58391814 363.37460999 326.375 361.5625 C322.66015625 355.99023437 322.66015625 355.99023437 318.9453125 350.41796875 C318.38811523 349.58257568 317.83091797 348.74718262 317.25683594 347.88647461 C316.07890276 346.11875637 314.90248663 344.35002635 313.72753906 342.58032227 C310.73666231 338.08003481 307.72984146 333.59275597 304.67230225 329.13739014 C303.54802058 327.49744182 302.42925939 325.85371337 301.31054688 324.20996094 C299.87579807 322.1027137 298.43205036 320.00155982 296.97851562 317.90722656 C296.32818359 316.9478418 295.67785156 315.98845703 295.0078125 315 C294.42660645 314.154375 293.84540039 313.30875 293.24658203 312.4375 C291.81966279 309.64737824 291.56289581 308.09054676 292 305 C293.00292969 303.23339844 293.00292969 303.23339844 294.421875 301.609375 C294.94652344 300.99143066 295.47117187 300.37348633 296.01171875 299.73681641 C296.58535156 299.08116699 297.15898437 298.42551758 297.75 297.75 C302.43016074 292.20319024 306.86123374 286.58782988 311 280.625 C311.48106201 279.93212891 311.96212402 279.23925781 312.45776367 278.52539062 C313.44851906 277.09752281 314.4389938 275.66946021 315.42919922 274.24121094 C318.79503151 269.43885775 322.26503221 264.71016522 325.72460938 259.97509766 C328.3226461 256.4007649 330.81150962 252.84689658 333 249 C318.65144189 255.76825656 318.65144189 255.76825656 304.4375 262.8125 C294.38521703 267.90003147 284.12214365 272.54537328 273.89598083 277.2696991 C266.83832167 280.53271242 259.79546216 283.8272481 252.75488281 287.12692261 C251.34652282 287.78688956 249.93799687 288.4465025 248.52929688 289.10574341 C246.55300594 290.03062562 244.57721042 290.95655768 242.6015625 291.8828125 C241.47057129 292.41277832 240.33958008 292.94274414 239.17431641 293.48876953 C236.09595142 294.95431939 233.04399102 296.464505 230 298 C232.64509565 300.64509565 235.56666722 301.27249285 239.0625 302.3125 C239.76479736 302.5276123 240.46709473 302.74272461 241.19067383 302.96435547 C245.00429658 304.12577503 248.8295123 305.24184755 252.6640625 306.33203125 C253.79896118 306.65723755 253.79896118 306.65723755 254.95678711 306.98901367 C256.41135556 307.40371771 257.86784404 307.81176263 259.32641602 308.2121582 C263.28276663 309.33703565 266.58266832 310.70408396 270 313 C268.65516153 316.63236245 267.02155966 319.76881979 264.9453125 323.03515625 C264.33631104 323.9996167 263.72730957 324.96407715 263.09985352 325.95776367 C262.44815186 326.98232666 261.7964502 328.00688965 261.125 329.0625 C255.71564099 337.6364738 250.39048861 346.24926799 245.20947266 354.96313477 C241.89278115 360.5370022 238.50433297 366.0638648 235.09936523 371.58422852 C231.97574728 376.65724081 228.90142931 381.76014934 225.81884766 386.8581543 C220.61964409 395.45263493 215.39950254 404.02924681 210 412.5 C204.39575631 421.29544132 198.98878168 430.20766061 193.59155273 439.13085938 C189.89185823 445.24564308 186.17852271 451.35118431 182.42578125 457.43359375 C181.87206345 458.33121178 181.87206345 458.33121178 181.30715942 459.2469635 C179.54107268 462.10842931 177.77233242 464.96820622 176.00097656 467.82641602 C175.37288086 468.84276123 174.74478516 469.85910645 174.09765625 470.90625 C173.54601807 471.79634766 172.99437988 472.68644531 172.42602539 473.60351562 C170.98811936 475.92316816 170.98811936 475.92316816 169.99389648 478.19335938 C169 480 169 480 166 482 C163.50689411 482.24609566 163.50689411 482.24609566 160.47615051 482.24050903 C158.7534771 482.24463303 158.7534771 482.24463303 156.9960022 482.24884033 C155.73508759 482.24164978 154.47417297 482.23445923 153.17504883 482.22705078 C151.83472197 482.22648667 150.49439449 482.22680322 149.15406799 482.22793579 C145.51381187 482.22851033 141.87368716 482.21673973 138.23346162 482.20278788 C134.42979232 482.19029733 130.62612011 482.18911134 126.82243347 482.18673706 C119.61889653 482.18051736 112.41542019 482.16409992 105.21190995 482.14403808 C97.01127942 482.12169432 88.81064601 482.11068949 80.60999262 482.10064721 C63.73996001 482.07973411 46.86998641 482.04454862 30 482 C30.65914536 476.164574 32.12717561 472.78463637 35.75 468.25 C36.75957316 466.93333234 37.76594039 465.61420192 38.76953125 464.29296875 C39.56351318 463.25148682 39.56351318 463.25148682 40.37353516 462.18896484 C43.18850597 458.40045864 45.80202172 454.47692546 48.4375 450.5625 C52.98625856 443.84307978 57.70940392 437.3034486 62.62084961 430.84570312 C67.01134626 425.04865495 71.12396172 419.08469672 75.21484375 413.07421875 C82.05111875 403.03715851 89.14818707 393.17655404 96.21557617 383.30151367 C100.9979776 376.61450687 105.73139607 369.89298126 110.46777344 363.17333984 C113.47687174 358.90517652 116.48922184 354.63930707 119.50170898 350.37353516 C121.99240342 346.84616456 124.48094721 343.31731774 126.96484375 339.78515625 C132.15839551 332.40507054 137.39134278 325.05687815 142.6875 317.75 C147.44232794 311.18708618 152.09958568 304.57005159 156.69384766 297.89355469 C159.49192563 293.83712614 162.30712903 289.79269368 165.125 285.75 C165.69919678 284.92193848 166.27339355 284.09387695 166.86499023 283.24072266 C170.27412449 278.35519168 173.80472593 273.60206624 177.50292969 268.93115234 C178.77315033 267.29262572 179.95920913 265.58939833 181.125 263.875 C183.62243474 260.86653901 186.73779929 259.45068036 190.1875 257.6875 C196.80764485 254.28434342 201.74816294 250.22721908 207 245 C207.74056641 244.26982666 207.74056641 244.26982666 208.49609375 243.52490234 C211.69037323 240.3754304 214.85508132 237.19872907 218 234 C219.26616687 236.53233374 218.8507068 237.34584306 218.1796875 240.05859375 C217.87454224 241.33126099 217.87454224 241.33126099 217.56323242 242.62963867 C217.33611572 243.55623291 217.10899902 244.48282715 216.875 245.4375 C214.73489767 254.47983204 212.87304569 263.54958353 211.1875 272.6875 C210.96884277 273.86304443 210.75018555 275.03858887 210.52490234 276.24975586 C209.40137607 282.08914888 209.40137607 282.08914888 209 288 C209.51949219 286.88882812 210.03898438 285.77765625 210.57421875 284.6328125 C211.27857911 283.13017706 211.98301002 281.62757468 212.6875 280.125 C213.02716797 279.39796875 213.36683594 278.6709375 213.71679688 277.921875 C215.56437594 273.98497756 217.46293447 270.08763888 219.44921875 266.21875 C222.36717528 260.41205584 224.74930482 254.41958223 227.125 248.375 C227.55425781 247.29476562 227.98351562 246.21453125 228.42578125 245.1015625 C230.6768136 239.42203473 232.863655 233.72344577 235 228 C235.43699219 226.90042969 235.87398437 225.80085937 236.32421875 224.66796875 C240.61443901 213.71499956 243.89911765 202.51706642 247.16796875 191.22265625 C248.65523426 186.10106599 250.2719143 181.04515422 252 176 C245.33173193 182.53218097 239.03348105 189.22235012 233.1875 196.5 C232.465625 197.325 231.74375 198.15 231 199 C230.34 199 229.68 199 229 199 C228.74605469 199.58265625 228.49210938 200.1653125 228.23046875 200.765625 C226.86679667 203.24188033 225.35774797 204.80520626 223.3125 206.75 C220.55768063 209.4302304 217.94075141 212.14581567 215.4375 215.0625 C212.68255682 218.26722982 209.78891188 221.2486573 206.7578125 224.19140625 C204.22816644 226.79413097 202.00100967 229.63284855 199.7734375 232.49609375 C198 234 198 234 195.4921875 234.3984375 C192.57463492 233.93199492 191.73622972 233.3292174 189.75 231.1875 C189.15316406 230.54683594 188.55632812 229.90617188 187.94140625 229.24609375 C185.01172819 225.85662718 182.19512341 222.38086644 179.38671875 218.890625 C177.00629518 216.00762428 174.53320218 213.24921167 172 210.5 C167.97826376 206.12613017 164.19564862 201.61862 160.46484375 196.99609375 C157.62407002 193.54304549 154.69378228 190.17763182 151.75 186.8125 C146.63418936 180.95506146 141.69236911 174.97866872 136.81445312 168.92236328 C132.71538856 163.84561977 128.50498865 158.87729928 124.24023438 153.93945312 C120.50865659 149.61320159 116.87896202 145.21260965 113.27734375 140.77734375 C110.71795946 137.65603633 108.11406209 134.5754997 105.5 131.5 C102.12716411 127.53096457 98.78823355 123.53982979 95.5 119.5 C92.31440205 115.58707084 89.08132077 111.71845497 85.8125 107.875 C80.87893441 102.07245411 76.03589379 96.19852568 71.20361328 90.31152344 C67.12324217 85.34694118 62.99529629 80.42638584 58.83203125 75.53125 C55.26949212 71.33630747 51.78659964 67.08067956 48.3125 62.8125 C45.73853608 59.68200334 43.12430914 56.58827539 40.5 53.5 C36.37594815 48.64683401 32.32334463 43.74187035 28.3046875 38.80078125 C25.77966654 35.73223883 23.20503269 32.70970739 20.625 29.6875 C15.72988217 23.94297337 11.04362586 18.05044338 6.41015625 12.09375 C4.88536641 10.1364833 3.31429494 8.21369402 1.68359375 6.34375 C0 4 0 4 0 0 Z " fill="#4AEF58" transform="translate(16,11)"/>
<path d="M0 0 C0.97590088 -0.00563965 1.95180176 -0.0112793 2.95727539 -0.01708984 C4.56880493 -0.01101715 4.56880493 -0.01101715 6.21289062 -0.00482178 C7.34138428 -0.00832642 8.46987793 -0.01183105 9.63256836 -0.01544189 C13.37815427 -0.02427403 17.12355266 -0.01840475 20.86914062 -0.01165771 C23.46223995 -0.01300394 26.05533904 -0.01494411 28.6484375 -0.01745605 C34.08921945 -0.02040933 39.52993037 -0.01629272 44.97070312 -0.0067749 C51.26573789 0.00410997 57.56064312 0.0005845 63.85567474 -0.01042771 C69.90518489 -0.02058786 75.95463152 -0.01952445 82.00415039 -0.01366425 C84.58146177 -0.01232622 87.15877644 -0.01398077 89.73608398 -0.01862335 C93.33260975 -0.02367948 96.92888371 -0.01599105 100.52539062 -0.00482178 C101.59974365 -0.00887024 102.67409668 -0.0129187 103.78100586 -0.01708984 C104.75690674 -0.0114502 105.73280762 -0.00581055 106.73828125 0 C107.58926392 0.00075405 108.44024658 0.0015081 109.3170166 0.002285 C111.36914062 0.25396729 111.36914062 0.25396729 113.36914062 2.25396729 C113.56627367 4.85756062 113.63684883 7.35477733 113.62082291 9.95957947 C113.62372979 10.76833058 113.62663667 11.5770817 113.62963164 12.41034043 C113.6369929 15.14954947 113.62995998 17.88853878 113.62310791 20.62774658 C113.62540993 22.59970306 113.6285847 24.57165867 113.6325624 26.54361248 C113.64095468 31.98520793 113.63676513 37.42673374 113.63058996 42.86832952 C113.6260845 48.72796966 113.63303971 54.5875974 113.6385498 60.44723511 C113.64746592 71.93527269 113.64551195 83.42328421 113.63972452 94.91132283 C113.6351461 104.24383146 113.63453825 113.57633411 113.63677216 122.90884399 C113.63692493 123.57109003 113.6370777 124.23333606 113.6372351 124.91565015 C113.63785774 127.60368586 113.63849453 130.29172156 113.63915462 132.97975726 C113.64527745 158.21363225 113.63971806 183.44749299 113.62896083 208.68136577 C113.61946909 231.11735776 113.62031832 253.55332706 113.62988281 275.98931885 C113.64058395 301.17600891 113.64484328 326.36268638 113.63865829 351.5493784 C113.63801682 354.23261579 113.63739114 356.91585318 113.63677216 359.59909058 C113.636614 360.25980866 113.63645585 360.92052674 113.6362929 361.60126659 C113.63401459 371.59417752 113.63669705 381.58707753 113.64173126 391.57998657 C113.64732733 402.93838504 113.6458506 414.29675585 113.63516977 425.65515113 C113.62989583 431.45579155 113.62788547 437.25638578 113.63446808 443.05702591 C113.6403942 448.35916167 113.6372081 453.66120807 113.62651297 458.96333563 C113.62426468 460.88927357 113.62544687 462.81521894 113.63026455 464.74115217 C113.63627912 467.343663 113.63017701 469.94586108 113.62082291 472.5483551 C113.62550524 473.3094065 113.63018757 474.0704579 113.63501179 474.85457146 C113.59744137 480.02566654 113.59744137 480.02566654 111.36914062 482.25396729 C108.96332958 482.47823155 106.66994751 482.57888771 104.26074219 482.59210205 C103.52881653 482.60363815 102.79689087 482.61517426 102.04278564 482.62705994 C99.61509088 482.66144106 97.18765074 482.67988521 94.75976562 482.69537354 C93.93061394 482.70227644 93.10146225 482.70917934 92.24718475 482.71629143 C87.85717062 482.75216043 83.46728557 482.77568048 79.07714844 482.78936768 C74.54600668 482.80590247 70.01642936 482.86429584 65.48581314 482.93251133 C61.99929209 482.97733871 58.51314408 482.99086529 55.02635956 482.99598503 C53.3565685 483.0038732 51.68678924 483.02350264 50.01728058 483.05520821 C36.97343059 483.28653329 36.97343059 483.28653329 33.07025146 480.77433777 C31.51255122 478.99430961 30.45496418 477.34672509 29.36914062 475.25396729 C28.50130537 474.0147409 27.62237497 472.78314923 26.72851562 471.56256104 C25.85495827 470.27474278 24.98528533 468.98428268 24.11914062 467.69146729 C23.15148312 466.26494435 22.18271315 464.83917546 21.21289062 463.41412354 C20.73335937 462.70916748 20.25382813 462.00421143 19.75976562 461.27789307 C18.15861797 458.94757108 16.52282511 456.64564438 14.86083609 454.3584106 C14.06603228 453.25140153 13.28232424 452.13628776 12.51321739 451.01127362 C10.08946244 447.49373805 7.53466081 444.30653941 4.63617802 441.1666069 C-10.02927696 424.20269376 -8.72383493 406.40567289 -8.40116179 385.13724303 C-8.33985945 379.99096406 -8.36654158 374.84498881 -8.3818512 369.69847107 C-8.39835613 359.65083182 -8.33611445 349.60518858 -8.24733634 339.55798957 C-8.14746033 327.85394652 -8.13158169 316.15022787 -8.12001162 304.44581911 C-8.0970005 283.57462599 -8.0057265 262.70431405 -7.87231445 241.83355713 C-7.74295591 221.5780292 -7.6510674 201.32285152 -7.60571289 181.06695557 C-7.60290284 179.81634115 -7.6000928 178.56572674 -7.5971976 177.27721491 C-7.58602114 172.25037725 -7.57502069 167.22353925 -7.56427414 162.19670065 C-7.51488157 139.3876036 -7.43825351 116.57858265 -7.35351562 93.76959229 C-7.34926241 92.6104485 -7.3450092 91.45130472 -7.3406271 90.25703537 C-7.2870797 75.79549095 -7.22046254 61.33410724 -7.13147545 46.87273598 C-7.10695573 42.83894719 -7.08699943 38.8051771 -7.0711441 34.77134514 C-7.0527164 30.13980759 -7.02497721 25.50842599 -6.98946636 20.87698874 C-6.97813877 19.19527274 -6.97018302 17.51353023 -6.96580745 15.83178177 C-6.95932535 13.55885252 -6.94073504 11.28634837 -6.91885471 9.0135231 C-6.91148306 7.74731007 -6.90411142 6.48109704 -6.89651638 5.17651391 C-6.45048404 0.26962163 -4.41429205 0.00391148 0 0 Z " fill="#4BF159" transform="translate(550.630859375,10.74603271484375)"/>
<path d="M0 0 C-5.11644393 6.18732755 -10.68832048 11.83734871 -16.375 17.5 C-17.2825 18.41136719 -18.19 19.32273438 -19.125 20.26171875 C-23.68776496 24.81790912 -28.30042427 29.241733 -33.19482422 33.43994141 C-35.99546107 35.86029162 -38.67611309 38.4051015 -41.375 40.9375 C-45.8544004 45.1013136 -50.41164719 49.06630393 -55.23828125 52.828125 C-57.36532055 54.50087443 -59.45958002 56.19609518 -61.54296875 57.921875 C-69.53311363 64.52578997 -77.67846748 70.79437817 -86.1484375 76.77416992 C-86.86902344 77.28439697 -87.58960938 77.79462402 -88.33203125 78.3203125 C-88.96858643 78.76648926 -89.6051416 79.21266602 -90.26098633 79.67236328 C-92.05371726 80.97124047 -92.05371726 80.97124047 -93.60424805 82.66748047 C-95 84 -95 84 -97 84 C-95.30350438 78.89007345 -92.32901496 74.69795909 -89.375 70.25 C-88.20078142 68.46552864 -87.0276567 66.68033715 -85.85546875 64.89453125 C-85.2320459 63.94529785 -84.60862305 62.99606445 -83.96630859 62.01806641 C-81.91047016 58.86258158 -79.88306778 55.69039145 -77.86328125 52.51171875 C-77.1686377 51.41891602 -76.47399414 50.32611328 -75.75830078 49.20019531 C-74.41431466 47.08264869 -73.07270067 44.96359394 -71.73388672 42.84277344 C-68.54965094 37.83560135 -65.27816836 32.96900481 -61.73046875 28.2109375 C-59.52905975 25.24064718 -57.60335126 22.48145033 -56.1640625 19.07421875 C-53.80715402 13.88782368 -51.72272517 10.17855246 -46.33105469 7.84472656 C-39.7373923 5.79137296 -32.99763064 4.58483342 -26.18554688 3.50537109 C-23.35351407 3.05608324 -20.54700686 2.54433045 -17.734375 1.98828125 C-11.78942586 0.83404919 -6.08068855 -0.16787177 0 0 Z " fill="#060E06" transform="translate(385,138)"/>
<path d="M0 0 C4.74092376 4.48465761 4.74092376 4.48465761 6.3251009 7.63582897 C7.77835763 10.22852284 7.77835763 10.22852284 10.47748852 10.63085651 C11.47025956 10.63362189 12.46303061 10.63638727 13.48588562 10.63923645 C14.62592041 10.65452393 15.7659552 10.6698114 16.9405365 10.68556213 C18.19210037 10.67693649 19.44366425 10.66831085 20.7331543 10.65942383 C22.0503244 10.66990753 23.36749451 10.68039124 24.72457886 10.69119263 C28.33809419 10.71938938 31.95101698 10.71685881 35.56460929 10.70889878 C39.34034762 10.70577819 43.11589572 10.73079481 46.89155579 10.75285339 C54.04197356 10.79033948 61.19220113 10.80244406 68.34270746 10.8054778 C76.48297998 10.81016371 84.62306139 10.8430719 92.76324975 10.87837565 C109.50882172 10.95036711 126.2542763 10.98683597 143 11 C143 11.99 143 12.98 143 14 C125.61500963 14.14016532 108.2301956 14.24596828 90.84476948 14.31087303 C82.77237878 14.34181061 74.70033917 14.38398863 66.62817383 14.45263672 C59.59239966 14.5124425 52.55687975 14.55114988 45.52085847 14.56453097 C41.79522012 14.57235302 38.07030913 14.59073252 34.34490395 14.63438034 C30.18574395 14.68271483 26.0278481 14.68393915 21.8684082 14.68115234 C20.63338562 14.702724 19.39836304 14.72429565 18.12591553 14.746521 C9.98733332 14.6873455 9.98733332 14.6873455 7.17961693 12.73271561 C5.84025574 11.16055298 5.84025574 11.16055298 4 8 C3.236875 6.9275 2.47375 5.855 1.6875 4.75 C0 2 0 2 0 0 Z " fill="#59D367" transform="translate(418,480)"/>
<path d="M0 0 C-1.57313172 4.72843614 -4.20641235 8.3433843 -7.125 12.3125 C-7.59292969 12.95767578 -8.06085938 13.60285156 -8.54296875 14.26757812 C-9.6905929 15.84848894 -10.84465477 17.42472301 -12 19 C-16.81866427 18.46516981 -21.32832801 17.7806057 -26 16.4375 C-26.94875 16.16808594 -27.8975 15.89867187 -28.875 15.62109375 C-29.57625 15.41613281 -30.2775 15.21117187 -31 15 C-30 12 -30 12 -27.94628906 10.77319336 C-27.06166992 10.38268799 -26.17705078 9.99218262 -25.265625 9.58984375 C-24.29882812 9.15736328 -23.33203125 8.72488281 -22.3359375 8.27929688 C-21.31757813 7.83650391 -20.29921875 7.39371094 -19.25 6.9375 C-18.24710937 6.49083984 -17.24421875 6.04417969 -16.2109375 5.58398438 C-13.4805674 4.3726995 -10.74724031 3.17250714 -8 2 C-7.12827148 1.62302979 -6.25654297 1.24605957 -5.35839844 0.85766602 C-3 0 -3 0 0 0 Z " fill="#43E153" transform="translate(308,292)"/>
<path d="M0 0 C0.33 0 0.66 0 1 0 C1.32737284 9.40287557 0.72513427 18.26628184 -3 27 C-3.66 27 -4.32 27 -5 27 C-5.50780894 24.79344925 -6.00591365 22.58466395 -6.5 20.375 C-6.7784375 19.14523437 -7.056875 17.91546875 -7.34375 16.6484375 C-7.94091621 13.32847772 -8.12409534 10.36091549 -8 7 C-7.67 7 -7.34 7 -7 7 C-6.01 11.62 -5.02 16.24 -4 21 C-2.68 14.07 -1.36 7.14 0 0 Z " fill="#61DB70" transform="translate(381,262)"/>
<path d="M0 0 C1 2 1 2 0.44140625 3.9453125 C0.15136719 4.66460937 -0.13867188 5.38390625 -0.4375 6.125 C-0.72496094 6.84945312 -1.01242187 7.57390625 -1.30859375 8.3203125 C-1.53675781 8.87460938 -1.76492188 9.42890625 -2 10 C-2.66 9.34 -3.32 8.68 -4 8 C-6.31 10.31 -8.62 12.62 -11 15 C-11.66 14.67 -12.32 14.34 -13 14 C-11.2088872 12.04115757 -9.41713468 10.08290714 -7.625 8.125 C-7.11710937 7.56941406 -6.60921875 7.01382813 -6.0859375 6.44140625 C-4.0883974 4.25988219 -2.09183907 2.09183907 0 0 Z " fill="#122615" transform="translate(268,186)"/>
<path d="M0 0 C0.33 0 0.66 0 1 0 C1 1.65 1 3.3 1 5 C1.99 5.33 2.98 5.66 4 6 C2.35 9.3 0.7 12.6 -1 16 C-2.02971945 11.8811222 -1.81926586 9.84543879 -1.0625 5.75 C-0.86785156 4.67234375 -0.67320312 3.5946875 -0.47265625 2.484375 C-0.31667969 1.66453125 -0.16070312 0.8446875 0 0 Z " fill="#18391E" transform="translate(226,284)"/>
<path d="M0 0 C0.33 0 0.66 0 1 0 C1 1.65 1 3.3 1 5 C0.071875 5.309375 0.071875 5.309375 -0.875 5.625 C-3.3090939 6.8861233 -3.3090939 6.8861233 -4 10 C-5 13 -5 13 -7.125 14.375 C-7.74375 14.58125 -8.3625 14.7875 -9 15 C-7.61423779 11.13518578 -5.81080359 8.03192572 -3.4375 4.6875 C-2.81746094 3.80449219 -2.19742188 2.92148437 -1.55859375 2.01171875 C-0.78708984 1.01591797 -0.78708984 1.01591797 0 0 Z " fill="#4FDA5E" transform="translate(185,291)"/>
<path d="M0 0 C4.75 0.75 4.75 0.75 7 3 C9.06874034 3.6425235 9.06874034 3.6425235 11 4 C10.67 4.66 10.34 5.32 10 6 C6.37 5.01 2.74 4.02 -1 3 C-0.67 2.01 -0.34 1.02 0 0 Z " fill="#47D860" transform="translate(278,304)"/>
<path d="M0 0 C1.60031344 3.20062687 0.03173691 5.72271806 -1 9 C-1.33 8.01 -1.66 7.02 -2 6 C-2.66 6 -3.32 6 -4 6 C-4 6.99 -4 7.98 -4 9 C-4.99 9 -5.98 9 -7 9 C-5.44499019 5.18315774 -2.96404505 2.80804268 0 0 Z " fill="#4AE468" transform="translate(234,245)"/>
<path d="M0 0 C-1.75 4.875 -1.75 4.875 -4 6 C-4.33 5.34 -4.66 4.68 -5 4 C-6.65 4 -8.3 4 -10 4 C-7.02096266 1.02096266 -4.19714671 0 0 0 Z " fill="#44CB53" transform="translate(308,292)"/>
<path d="M0 0 C0.66 0.33 1.32 0.66 2 1 C1.26708288 2.1774734 0.51296199 3.34176854 -0.25 4.5 C-0.66765625 5.1496875 -1.0853125 5.799375 -1.515625 6.46875 C-2.00546875 6.9740625 -2.4953125 7.479375 -3 8 C-4.32 8 -5.64 8 -7 8 C-7.33 6.02 -7.66 4.04 -8 2 C-7.34 3.32 -6.68 4.64 -6 6 C-4.04105639 5.88693303 -4.04105639 5.88693303 -2 5 C-0.70339566 2.50965614 -0.70339566 2.50965614 0 0 Z " fill="#5EE571" transform="translate(393,214)"/>
<path d="M0 0 C0.66 0.33 1.32 0.66 2 1 C0.02 3.31 -1.96 5.62 -4 8 C-4.66 7.34 -5.32 6.68 -6 6 C-4.02 4.02 -2.04 2.04 0 0 Z " fill="#42D652" transform="translate(356,166)"/>
<path d="M0 0 C2.35953094 2.35953094 2.49141413 3.77895617 3 7 C2.34 7 1.68 7 1 7 C0.67 8.98 0.34 10.96 0 13 C-0.33 13 -0.66 13 -1 13 C-1.02708567 11.39592672 -1.04643483 9.7917215 -1.0625 8.1875 C-1.07410156 7.29417969 -1.08570313 6.40085938 -1.09765625 5.48046875 C-1 3 -1 3 0 0 Z " fill="#15371A" transform="translate(371,184)"/>
<path d="M0 0 C0 0.99 0 1.98 0 3 C-3.63 3 -7.26 3 -11 3 C-10.67 2.34 -10.34 1.68 -10 1 C-6.63471927 0.46582846 -3.40372484 0 0 0 Z " fill="#53BA59" transform="translate(387,136)"/>
</svg>
